# xmcd CD database file
# Copyright (C) 1993-1998 Ti Kan
#
# Track frame offsets:
#  150
#  13345
#  30165
#  45355
#  62782
#  81637
#  98190
#  113865
#  135785
#  153232
#
# Disc length: 2252 seconds
#
# Revision: 1
# Processed by: cddbd v1.4b41PL1 Copyright (c) Steve Scherf et al.
# Submitted via: CDWizzard Release:4.35
#
DISCID=7308ca0a
DTITLE=Shirley Caesar - Her Very Best
DYEAR=1900
DGENRE=
TTITLE0=Jesus Makes The Difference In Me
TTITLE1=Jesus, I Love Calling Your Name
TTITLE2=He's Got It All In Control
TTITLE3=Satan, Your're A Liar
TTITLE4=Sailing On The Sea Of His Love
TTITLE5=The Dord Will make A Way
TTITLE6=No Charge
TTITLE7=Lord, Let Your Spirit Fall On Me
TTITLE8=Go
TTITLE9=Your Are All I Need
EXTD=
EXTT0=
EXTT1=
EXTT2=
EXTT3=
EXTT4=
EXTT5=
EXTT6=
EXTT7=
EXTT8=
EXTT9=
PLAYORDER=
